<?xml version="1.0" standalone="no"?>
<!DOCTYPE svg PUBLIC "-//W3C//DTD SVG 20010904//EN"
 "http://www.w3.org/TR/2001/REC-SVG-20010904/DTD/svg10.dtd">
<svg version="1.0" xmlns="http://www.w3.org/2000/svg"
 width="550.000000pt" height="550.000000pt" viewBox="0 0 550.000000 550.000000"
 preserveAspectRatio="xMidYMid meet">
<metadata>
Created by potrace 1.14, written by Peter Selinger 2001-2017
</metadata>
<g transform="translate(0.000000,550.000000) scale(0.100000,-0.100000)"
fill="#000000" stroke="none">
<path d="M2673 5253 c-8 -2 -13 -22 -13 -44 0 -52 -21 -101 -52 -121 -18 -12
-27 -31 -36 -74 -6 -33 -20 -99 -31 -149 -10 -49 -19 -106 -19 -125 0 -19 -6
-48 -12 -65 -36 -91 -95 -338 -91 -382 1 -16 37 -17 47 -2 10 17 24 -10 24
-49 0 -26 4 -33 17 -30 11 2 20 16 24 33 6 30 6 30 122 -85 l117 -116 1 -59
c1 -33 0 -64 -1 -70 -2 -5 -11 -39 -22 -75 -18 -61 -36 -183 -22 -150 4 8 12
21 18 29 6 7 19 34 28 60 l16 46 1 -41 c1 -23 7 -46 14 -52 20 -17 -2 -320
-23 -307 -14 8 -32 -24 -42 -73 -19 -99 -78 -434 -78 -443 0 -5 7 -9 14 -9 17
0 36 31 75 120 11 25 11 25 8 -5 -1 -19 3 -29 11 -27 8 1 12 -12 12 -38 0 -34
3 -40 21 -40 18 0 20 -4 14 -22 -17 -54 -17 -78 -2 -78 21 0 35 21 52 78 24
81 37 75 29 -13 -6 -63 -4 -77 7 -73 12 4 17 24 48 206 8 41 21 82 32 95 l19
22 -2 -55 c-2 -49 0 -55 17 -55 17 0 20 8 22 60 4 132 14 215 38 310 14 55 36
159 49 230 13 72 25 118 25 103 1 -16 7 -28 14 -28 7 0 18 -13 24 -30 7 -20
18 -30 32 -30 30 0 32 13 11 54 -10 21 -22 63 -25 94 -3 32 -10 80 -16 107 -5
28 -11 91 -14 140 -7 128 -16 194 -27 201 -5 3 -12 -3 -15 -15 -10 -41 -43
-21 -168 102 -112 109 -126 126 -130 162 l-5 40 12 -32 c19 -48 32 -57 51 -38
15 15 15 18 1 41 -9 13 -14 27 -11 31 4 3 9 -2 13 -11 7 -19 35 -21 51 -5 9 9
4 22 -22 52 -41 47 -80 142 -90 217 -4 30 -22 123 -40 206 -19 83 -37 175 -41
205 -4 30 -11 60 -17 67 -9 12 -41 15 -64 5z"/>
<path d="M5296 4565 c-32 -42 -75 -66 -103 -59 -15 4 -37 -9 -79 -47 -110 -98
-194 -179 -194 -188 0 -4 -28 -29 -62 -54 -35 -25 -74 -57 -88 -69 -14 -13
-47 -41 -75 -63 -93 -74 -128 -112 -122 -129 4 -9 18 -16 33 -16 l26 0 -27
-45 c-22 -39 -24 -46 -10 -51 9 -4 25 2 35 11 11 10 23 15 26 12 4 -4 15 -55
26 -114 34 -198 34 -186 -3 -245 -19 -29 -37 -54 -41 -56 -19 -9 -151 -122
-165 -142 -13 -18 -13 -21 -2 -14 8 4 19 9 26 10 6 1 28 14 49 28 41 28 57 27
31 -2 -10 -10 -17 -29 -17 -41 0 -24 -55 -99 -142 -196 -39 -42 -53 -51 -73
-48 -21 4 -48 -18 -182 -150 -87 -85 -169 -164 -183 -175 -19 -16 -22 -23 -13
-33 9 -9 24 -6 66 14 31 14 58 31 62 36 3 6 11 11 17 11 6 0 1 -11 -12 -25
-20 -22 -21 -25 -6 -25 15 0 14 -5 -9 -32 l-27 -32 21 -18 22 -17 -29 -15
c-40 -20 -58 -44 -45 -57 15 -15 44 -4 94 36 60 47 69 33 15 -25 -26 -27 -46
-54 -46 -60 0 -25 34 -1 127 91 54 53 108 98 121 102 29 7 28 3 -9 -43 -30
-38 -32 -60 -4 -60 8 0 20 10 26 23 29 54 146 186 221 249 46 38 119 105 163
148 75 73 82 77 93 60 8 -13 9 -27 3 -44 -7 -16 -6 -29 3 -41 18 -25 40 -14
42 22 1 16 19 63 39 104 21 41 49 96 62 123 14 27 44 78 68 112 51 75 90 152
81 162 -4 3 -15 1 -26 -5 -29 -19 -46 12 -60 107 -5 30 -11 66 -14 80 -26 133
-28 165 -13 200 l16 35 -2 -45 c-2 -39 1 -45 18 -45 14 0 21 8 23 28 4 31 22
37 22 7 0 -11 7 -20 15 -20 8 0 18 -1 22 -2 3 -2 7 33 8 77 3 88 9 108 85 275
29 63 58 129 65 145 6 17 33 73 59 126 25 53 46 101 46 106 0 15 -34 43 -52
43 -9 0 -28 -16 -42 -35z"/>
<path d="M144 4512 c-22 -14 -21 -38 1 -77 28 -49 40 -101 26 -110 -6 -3 -11
-14 -11 -23 0 -22 109 -282 127 -304 8 -9 25 -47 38 -85 53 -153 97 -270 118
-313 26 -54 53 -64 63 -24 l7 28 34 -39 c25 -29 36 -36 45 -27 9 9 9 18 0 37
-10 23 -9 25 11 25 28 0 211 -29 259 -41 55 -14 103 -79 143 -193 18 -52 41
-105 50 -118 17 -23 17 -22 11 27 -3 28 -8 61 -11 75 l-6 25 21 -27 c12 -16
28 -28 36 -28 16 0 91 -112 136 -203 21 -41 26 -62 19 -74 -11 -21 0 -53 74
-208 85 -179 106 -224 104 -227 -7 -9 24 -48 37 -48 12 0 14 11 9 61 -3 34
-10 70 -16 81 -6 11 -8 22 -6 25 3 3 13 -10 23 -29 11 -20 19 -28 22 -19 3 9
11 5 28 -15 20 -25 25 -27 43 -17 18 12 21 9 33 -34 7 -25 19 -48 25 -50 21
-7 26 44 9 87 -17 44 -21 80 -8 80 5 0 19 -23 32 -50 13 -28 30 -56 37 -62 32
-26 23 9 -30 119 -31 65 -59 130 -62 144 -11 43 12 43 36 -1 25 -44 33 -48 48
-22 7 12 5 22 -8 37 -46 52 -123 191 -160 290 -24 61 -63 152 -87 204 -25 51
-43 95 -42 96 15 13 47 13 52 0 3 -9 18 -15 36 -15 27 0 31 3 28 23 -2 14 -11
23 -25 25 -24 4 -207 193 -273 282 -82 111 -128 148 -116 93 6 -27 5 -28 -41
-31 -27 -1 -67 4 -90 12 -23 8 -43 12 -46 10 -2 -3 -43 2 -91 11 -82 14 -146
39 -146 57 0 13 12 9 31 -8 22 -20 49 -12 49 15 0 12 -9 21 -25 25 -14 4 -25
11 -25 16 0 6 11 8 24 4 18 -4 27 -1 36 15 8 16 8 22 -2 25 -7 3 -30 10 -51
16 -88 27 -109 44 -446 368 -92 88 -112 101 -137 84z"/>
<path d="M2718 2784 c-16 -8 -67 -17 -118 -19 -50 -3 -139 -15 -198 -26 -59
-12 -123 -21 -142 -20 -38 1 -182 -32 -236 -55 -19 -8 -40 -23 -46 -34 -8 -13
-39 -28 -80 -41 -37 -11 -74 -26 -82 -34 -8 -8 -23 -15 -33 -15 -10 0 -31 -7
-47 -15 -15 -8 -34 -15 -40 -15 -7 0 -46 -25 -86 -55 -40 -30 -81 -55 -90 -55
-20 0 -60 -36 -60 -55 0 -18 -142 -125 -165 -125 -22 0 -181 -154 -243 -235
-25 -33 -52 -63 -58 -68 -14 -8 -44 -64 -44 -82 0 -6 -7 -20 -15 -30 -35 -46
-65 -92 -78 -120 -8 -16 -26 -44 -40 -61 -15 -17 -36 -53 -47 -80 -12 -27 -25
-51 -29 -54 -20 -12 -60 -100 -66 -145 -8 -54 -33 -125 -44 -125 -10 0 -39
-60 -55 -112 -8 -27 -11 -67 -8 -93 6 -61 -16 -305 -34 -373 -11 -37 -13 -76
-9 -125 11 -123 34 -152 108 -140 21 3 45 -1 65 -11 39 -20 161 -21 217 -1 21
8 44 10 50 6 22 -17 79 -20 158 -7 49 8 142 12 232 10 196 -3 335 -5 415 -3
36 1 90 0 120 -2 85 -4 210 3 204 13 -3 4 0 8 5 8 6 0 11 -6 11 -12 0 -9 3 -9
9 1 7 11 15 10 43 -7 30 -19 42 -20 89 -13 79 13 180 12 196 -1 8 -6 36 -13
63 -15 54 -3 113 28 117 62 3 17 1 16 -7 -2 -13 -32 -15 -29 -18 19 -2 46 15
101 28 93 5 -3 6 4 3 15 -3 12 4 28 22 45 16 14 24 25 20 25 -4 0 10 13 32 29
74 54 192 49 248 -9 27 -28 55 -116 60 -189 2 -28 12 -52 26 -67 27 -29 72
-31 227 -7 94 15 106 15 137 0 41 -20 145 -13 145 10 0 10 9 13 33 9 93 -15
149 -17 161 -7 9 8 22 8 39 2 29 -11 125 -13 307 -7 110 4 421 8 535 7 169 -2
277 -3 320 -3 28 -1 63 1 80 4 35 7 71 49 78 92 3 17 10 54 16 81 14 64 4 144
-30 230 -14 38 -29 140 -23 163 8 27 -22 129 -44 155 -9 10 -16 35 -17 56 0
22 -6 45 -11 52 -18 24 -59 154 -55 176 1 7 -17 47 -39 90 -59 113 -79 146
-101 163 -11 9 -26 25 -32 37 -70 122 -131 213 -151 226 -13 9 -34 36 -47 61
-25 51 -42 70 -162 183 -48 44 -106 91 -129 102 -39 19 -120 86 -129 107 -6
15 -105 82 -143 98 -19 8 -41 27 -50 43 -9 18 -31 36 -58 47 -24 10 -81 35
-128 56 -92 42 -234 94 -290 106 -19 5 -57 9 -85 10 -85 2 -282 38 -302 55
-39 34 -54 37 -96 19 -34 -16 -45 -16 -76 -6 -61 22 -172 27 -203 10z"/>
</g>
</svg>
